<svg version="1.1" id="Layer_1" xmlns="http://www.w3.org/2000/svg" xmlns:xlink="http://www.w3.org/1999/xlink" x="0px" y="0px"
	 width="100%" viewBox="0 0 565 441" enable-background="new 0 0 565 441" xml:space="preserve">
<path fill="#010101" opacity="1.000000" stroke="none" 
	d="
M409.000000,442.000000 
	C274.166687,442.000000 139.833389,441.981842 5.500175,442.094177 
	C1.750878,442.097321 0.903024,441.249725 0.905916,437.500031 
	C1.016975,293.500122 1.016961,149.500153 0.905971,5.500274 
	C0.903081,1.751294 1.750016,0.904106 5.499850,0.906270 
	C190.833069,1.013218 376.166351,1.013199 561.499573,0.906372 
	C565.248047,0.904211 566.097046,1.749375 566.094116,5.499734 
	C565.983032,149.499619 565.983093,293.499603 566.093994,437.499512 
	C566.096924,441.247925 565.252197,442.107635 561.500122,442.096954 
	C510.833740,441.952454 460.166809,442.000000 409.000000,442.000000 
z"/>
<path fill="#EA2B79" opacity="1.000000" stroke="none" 
	d="
M100.589516,191.185608 
	C100.948547,190.720322 101.279640,190.527054 101.770096,190.089996 
	C103.385803,188.139267 102.980339,186.067505 102.986893,184.109055 
	C103.023056,173.298676 103.063232,162.487549 102.968422,151.677979 
	C102.938255,148.238007 103.595024,145.744339 107.694054,145.648300 
	C111.597755,145.556824 113.271713,147.007858 113.455635,151.407852 
	C113.733459,158.054169 113.506767,164.711075 113.565804,171.363083 
	C113.581741,173.158920 113.349503,174.991501 114.197189,177.300308 
	C115.679298,175.425385 115.399551,173.611801 115.419838,171.938232 
	C115.500458,165.286362 115.300560,158.630569 115.516945,151.982056 
	C115.674904,147.128571 117.258011,145.571548 121.271889,145.663132 
	C125.536270,145.760422 126.484894,148.517136 126.498672,152.039459 
	C126.516838,156.686417 126.100319,161.338974 126.940315,166.184448 
	C127.399460,166.346069 127.614090,166.301010 128.046204,165.980652 
	C128.940170,161.731949 128.558105,157.729431 128.549179,153.741425 
	C128.531448,145.818588 131.257919,144.032959 138.888733,147.599457 
	C139.064728,150.683380 139.047150,153.375854 139.103699,156.510208 
	C142.287811,158.084595 141.933792,155.752075 141.971893,154.043503 
	C142.146133,146.228210 142.624710,138.424515 142.599472,130.597778 
	C142.588165,127.090599 141.415298,125.907394 137.984787,125.952888 
	C128.325653,126.080963 118.663078,126.040535 109.002563,125.965019 
	C106.954758,125.949013 103.995178,126.755463 103.467476,123.998833 
	C102.934761,121.215996 101.333054,117.735878 105.493988,115.548744 
	C107.983940,115.605110 110.027435,115.663345 112.500381,115.634720 
	C114.332985,114.951569 115.776649,114.933647 117.656525,115.396713 
	C118.788033,115.604317 119.506454,115.660805 120.577713,115.632645 
	C125.323227,114.566086 129.749908,114.999794 134.620316,115.388885 
	C138.724319,115.606827 142.379715,115.665695 146.482422,115.636490 
	C148.009888,115.079643 149.121262,114.967682 150.668671,115.403763 
	C151.787735,115.608681 152.505814,115.666313 153.576599,115.639107 
	C154.392990,115.375481 154.872894,115.300888 155.719498,115.444862 
	C161.828629,115.478882 159.586578,119.834839 159.968750,122.676468 
	C160.423218,126.055511 158.052948,126.023315 155.803848,125.826187 
	C153.063889,125.586037 151.926331,126.516006 152.013351,129.453156 
	C152.200409,135.766327 152.070770,142.088882 152.070770,148.428024 
	C154.568054,149.104019 155.554276,147.121094 156.845276,146.099243 
	C203.218933,109.394295 249.549042,72.634346 295.884247,35.880863 
	C301.656891,31.301971 301.653015,31.300762 307.332977,35.807720 
	C343.341644,64.380196 379.406372,92.882362 415.346039,121.541367 
	C459.485229,156.738831 503.520477,192.066589 547.598389,227.340927 
	C548.766174,228.275482 549.907227,229.243423 551.092468,230.222000 
	C550.273010,232.004593 548.742065,231.262085 547.608276,231.265671 
	C529.278015,231.323563 510.946381,231.204422 492.617950,231.396988 
	C488.983093,231.435181 486.751251,229.499878 484.300385,227.556351 
	C440.457428,192.789307 396.621002,158.014099 352.779877,123.244781 
	C336.859833,110.618980 320.870361,98.079216 305.066864,85.309258 
	C302.457733,83.200974 300.882690,83.214737 298.325043,85.248283 
	C238.340469,132.940933 178.279602,180.537582 118.298347,228.234375 
	C115.508484,230.452850 112.761391,231.442245 109.215729,231.374298 
	C99.387543,231.185974 89.549469,231.148804 79.723564,231.389404 
	C75.896141,231.483139 74.511124,230.523605 74.593925,226.436615 
	C74.853790,213.610565 74.735550,200.775513 74.629684,187.945053 
	C74.616219,186.312790 75.822044,183.742096 73.509956,183.172119 
	C71.553146,182.689758 71.345947,185.322464 70.615898,186.676636 
	C63.345818,200.161911 56.033997,213.627701 49.031204,227.251785 
	C47.400459,230.424423 45.509056,231.519623 42.073318,231.381042 
	C35.957016,231.134354 29.823610,231.311691 23.322649,231.311691 
	C24.403545,226.807831 26.832600,223.577866 28.646816,220.098648 
	C34.729668,208.433289 40.795757,196.750839 47.274464,185.304840 
	C49.488720,181.392883 49.335873,179.844009 44.989910,177.814011 
	C32.514004,171.986511 27.602116,161.329620 28.173023,148.051941 
	C28.728346,135.136795 33.918976,124.811287 46.419949,119.488174 
	C52.633850,116.842209 59.378521,116.449928 66.036667,116.260590 
	C74.528877,116.019081 83.038780,116.329216 91.525734,116.003014 
	C95.657265,115.844223 96.913544,117.087303 96.877357,121.287514 
	C96.683525,143.782318 96.750885,166.279968 96.917763,188.775238 
	C96.925186,189.775040 94.544983,194.279343 99.747391,191.687637 
	C100.201660,191.399292 100.381622,191.428467 100.589516,191.185608 
z"/>
<path fill="#FCFCFC" opacity="1.000000" stroke="none" 
	d="
M334.052307,289.000000 
	C334.051758,323.322571 333.976105,357.145538 334.150269,390.967194 
	C334.170898,394.979614 333.054352,395.887970 329.181183,395.867798 
	C298.525116,395.708191 267.867554,395.717804 237.211288,395.858368 
	C233.448608,395.875610 231.955856,395.177795 232.159210,391.001282 
	C232.539581,383.188995 232.453659,375.338470 232.181229,367.517090 
	C232.061676,364.084808 233.251511,363.372253 236.421341,363.394287 
	C255.081161,363.523895 273.743317,363.359070 292.402252,363.541565 
	C296.150269,363.578247 297.477448,362.845337 297.436646,358.730286 
	C297.213531,336.239685 297.232758,313.744812 297.427307,291.253662 
	C297.459869,287.489166 296.494751,286.564850 292.769348,286.621063 
	C277.277740,286.854889 261.780182,286.664215 246.286240,286.798157 
	C243.190735,286.824921 241.886063,286.239746 242.017853,282.716614 
	C242.310349,274.897308 242.263077,267.052826 241.996384,259.230835 
	C241.878677,255.779053 242.781815,254.714279 246.359818,254.761856 
	C261.685547,254.965668 277.016846,254.742020 292.343079,254.926147 
	C296.019165,254.970291 297.495483,254.377899 297.444763,250.151016 
	C297.194946,229.327301 297.214661,208.497742 297.433014,187.673325 
	C297.474518,183.715881 296.163239,183.082932 292.607544,183.116714 
	C274.281677,183.290985 255.952576,183.115616 237.626434,183.274124 
	C234.237457,183.303436 233.004898,182.541779 233.127365,178.925018 
	C233.403534,170.770294 233.320267,162.597687 233.156296,154.436920 
	C233.100708,151.670181 233.822495,150.730850 236.733856,150.740082 
	C268.056915,150.839401 299.380798,150.878281 330.703308,150.715759 
	C334.992523,150.693527 334.038605,153.244583 334.039490,155.542526 
	C334.056702,199.861679 334.052277,244.180847 334.052307,289.000000 
z"/>
<path fill="#FAFAFB" opacity="1.000000" stroke="none" 
	d="
M414.840271,383.203461 
	C405.028625,360.268127 395.372650,337.681854 385.488251,314.561218 
	C384.031464,316.487671 384.572876,318.293182 384.570251,319.898712 
	C384.531372,343.552795 384.459045,367.207581 384.632050,390.860443 
	C384.660034,394.685455 383.854858,396.140747 379.750244,395.879913 
	C373.777557,395.500366 367.745789,395.506256 361.771606,395.874146 
	C357.342743,396.146881 355.935516,395.012939 355.957458,390.258118 
	C356.163666,345.616089 356.079956,300.972687 356.079926,256.329681 
	C356.079895,241.504211 356.175446,226.677628 356.004578,211.854126 
	C355.967163,208.607040 356.794342,207.537369 360.130005,207.678329 
	C366.448700,207.945358 372.801666,208.019669 379.111420,207.662384 
	C383.342438,207.422806 384.734039,208.385193 384.672974,213.004868 
	C384.382416,234.989365 384.543427,256.979828 384.543701,278.968170 
	C384.543732,280.588318 384.543701,282.208496 384.543701,283.978607 
	C386.630035,283.466980 386.452759,281.842407 386.887604,280.748932 
	C396.039673,257.735413 405.189697,234.720520 414.158936,211.635498 
	C415.300812,208.696548 416.656769,207.583450 419.876526,207.670822 
	C428.790741,207.912720 437.715820,207.754623 447.290985,207.754623 
	C439.434296,226.038101 431.902191,243.566666 424.369690,261.095032 
	C419.580322,272.239960 414.864594,283.417542 409.949158,294.506592 
	C408.697845,297.329437 408.844269,299.660919 410.098267,302.469696 
	C423.717590,332.974823 437.203735,363.539398 450.712036,394.094055 
	C450.834473,394.370972 450.764313,394.733032 450.827087,395.757324 
	C441.088135,395.757324 431.384216,395.750275 421.680267,395.763824 
	C419.932526,395.766266 419.570374,394.381958 419.058685,393.201324 
	C417.670990,389.999573 416.345886,386.770691 414.840271,383.203461 
z"/>
<path fill="#FCFCFC" opacity="1.000000" stroke="none" 
	d="
M61.020046,395.777954 
	C57.524410,395.777588 54.522659,395.846344 51.525124,395.763184 
	C44.317108,395.563202 40.013424,391.699402 39.148830,384.611053 
	C38.927982,382.800476 38.995056,380.950104 38.994728,379.118011 
	C38.987328,337.953613 38.981583,296.789215 38.993259,255.624802 
	C38.996986,242.489899 42.754673,238.754990 56.013420,238.727600 
	C70.845871,238.696960 85.678688,238.668060 100.510872,238.738007 
	C113.066803,238.797211 116.988243,242.724991 117.064583,255.188950 
	C117.121750,264.521423 116.985359,273.856018 117.136253,283.186432 
	C117.180313,285.910767 116.584045,287.037933 113.598969,286.910553 
	C108.109283,286.676239 102.595711,286.681671 97.105385,286.908508 
	C94.076927,287.033600 93.023705,286.201416 93.135971,283.032288 
	C93.377739,276.207886 93.099968,269.366241 93.267853,262.537415 
	C93.333221,259.878571 92.850288,258.741150 89.813141,258.827637 
	C81.820045,259.055237 73.814049,259.010712 65.817879,258.846405 
	C63.199387,258.792633 62.433086,259.555084 62.438549,262.180542 
	C62.514854,298.845001 62.515831,335.509796 62.439243,372.174286 
	C62.433453,374.947021 63.151463,375.956543 66.069099,375.889038 
	C74.064362,375.704102 82.067871,375.751801 90.065598,375.873199 
	C92.394768,375.908539 93.279846,375.294556 93.259827,372.825348 
	C93.157089,360.160217 93.159828,347.493408 93.258759,334.828186 
	C93.276985,332.493683 92.680504,331.567932 90.218544,331.693634 
	C86.561569,331.880341 82.881401,331.608765 79.223900,331.790222 
	C76.701347,331.915344 75.614021,331.239655 75.735107,328.499817 
	C75.933586,324.008759 75.955887,319.494446 75.731491,315.005951 
	C75.592255,312.220795 76.717239,311.732727 79.195564,311.756714 
	C90.693848,311.867981 102.195564,311.915466 113.692017,311.732269 
	C116.753601,311.683472 117.137459,312.893951 117.127045,315.498688 
	C117.040390,337.163818 117.157455,358.829865 117.043152,380.494720 
	C116.983810,391.743408 112.723961,395.775482 101.513420,395.777313 
	C88.180893,395.779510 74.848373,395.777924 61.020046,395.777954 
z"/>
<path fill="#E62B78" opacity="1.000000" stroke="none" 
	d="
M137.253036,355.000000 
	C137.251724,312.351410 137.327652,270.202515 137.140045,228.054749 
	C137.119186,223.371140 138.479446,222.229752 143.010757,222.280609 
	C163.499268,222.510635 183.992462,222.446289 204.482559,222.296005 
	C208.070908,222.269684 209.623672,223.073196 209.330505,226.990219 
	C208.983322,231.629089 208.979507,236.333084 209.322617,240.972168 
	C209.615250,244.928955 207.992310,245.680466 204.433121,245.624512 
	C192.441238,245.436005 180.442413,245.681686 168.450989,245.479202 
	C164.813889,245.417786 163.520874,246.344833 163.581757,250.189148 
	C163.800659,264.013062 163.778107,277.844025 163.590698,291.668854 
	C163.542648,295.213409 164.670502,296.195984 168.125397,296.126251 
	C178.283539,295.921295 188.451767,296.200806 198.609070,295.976013 
	C202.211105,295.896332 203.230240,297.142822 203.046768,300.560028 
	C202.797043,305.211456 202.765610,309.898956 203.046783,314.546417 
	C203.253372,317.961212 201.934937,318.813995 198.751678,318.764893 
	C188.758362,318.610626 178.758560,318.838318 168.766800,318.640198 
	C165.099396,318.567505 163.492432,319.260742 163.568146,323.491669 
	C163.836380,338.480347 163.814606,353.479218 163.567505,368.468719 
	C163.501266,372.487213 165.041580,373.083405 168.514191,373.033905 
	C180.839737,372.858093 193.170639,373.064056 205.496460,372.897919 
	C208.839325,372.852875 210.326050,373.602081 210.090744,377.283783 
	C209.783234,382.095428 209.819809,386.951996 210.079910,391.769165 
	C210.264389,395.185913 208.904144,395.930115 205.744522,395.912720 
	C184.420990,395.795227 163.095551,395.746185 141.773193,395.942383 
	C137.777985,395.979126 137.124603,394.483063 137.178940,390.983093 
	C137.362534,379.157837 137.251389,367.328064 137.253036,355.000000 
z"/>
<path fill="#FBFBFB" opacity="1.000000" stroke="none" 
	d="
M487.033386,258.633545 
	C484.171906,258.278870 483.847443,259.557953 483.871613,261.566345 
	C483.963867,269.227448 483.992279,276.891907 483.852722,284.551605 
	C483.814087,286.671753 484.785828,287.872681 486.180908,289.177399 
	C500.649689,302.709229 515.013611,316.353760 529.546265,329.816315 
	C534.140381,334.072174 536.317566,339.009155 536.235168,345.262634 
	C536.077209,357.253601 536.245178,369.248444 536.175293,381.241119 
	C536.115051,391.572418 531.840759,395.766602 521.536743,395.776520 
	C505.879120,395.791595 490.221497,395.797363 474.563904,395.775177 
	C464.935333,395.761536 460.417664,391.543427 460.236816,381.856201 
	C460.022339,370.366821 460.252045,358.869629 460.103363,347.378204 
	C460.068268,344.663666 461.009094,343.960114 463.554504,344.031158 
	C469.047058,344.184448 474.553986,344.246948 480.040833,344.013184 
	C483.113098,343.882294 484.065521,344.803711 483.980286,347.924377 
	C483.762054,355.913818 484.108948,363.920563 483.815643,371.905212 
	C483.682007,375.542725 484.900208,376.344604 488.294159,376.214325 
	C495.113281,375.952515 501.952942,376.009277 508.777069,376.194763 
	C511.660675,376.273163 512.938599,375.746307 512.836365,372.440491 
	C512.589355,364.452728 512.681885,356.451019 512.806946,348.457581 
	C512.841187,346.268402 512.186462,344.722656 510.603516,343.244781 
	C496.975098,330.520905 483.599670,317.517670 469.728516,305.065918 
	C463.029327,299.052216 459.555206,292.404022 460.022858,283.265015 
	C460.524506,273.462616 460.069000,263.614563 460.190948,253.788406 
	C460.322388,243.200256 464.562256,238.855026 475.086700,238.760925 
	C490.409973,238.623871 505.736328,238.614792 521.059509,238.755981 
	C532.106995,238.857758 536.144409,243.043686 536.182739,253.937592 
	C536.217957,263.931702 536.014221,273.930847 536.286133,283.917694 
	C536.385681,287.574921 535.175354,288.387146 531.791748,288.209503 
	C526.476135,287.930389 521.131897,288.025940 515.806396,288.185150 
	C513.404358,288.256989 512.660828,287.486877 512.708252,285.090637 
	C512.846558,278.097443 512.510681,271.087830 512.847900,264.108215 
	C513.050354,259.916809 512.214539,258.173340 507.511749,258.512726 
	C500.883423,258.991119 494.194763,258.633392 487.033386,258.633545 
z"/>
<path fill="#20041E" opacity="1.000000" stroke="none" 
	d="
M127.926254,168.140976 
	C125.404099,171.923538 125.511734,169.102264 125.484032,167.260498 
	C125.403931,161.934723 125.281555,156.598984 125.521912,151.282806 
	C125.676895,147.855042 124.246117,147.098465 121.124100,147.078827 
	C117.973152,147.059021 116.669487,147.853271 116.765953,151.262955 
	C116.987129,159.080765 116.861893,166.909210 116.814178,174.732941 
	C116.806259,176.030655 116.765114,177.465683 116.219833,178.583939 
	C115.673042,179.705261 114.482437,180.955780 113.104568,180.626022 
	C111.641960,180.276001 112.254944,178.660599 112.248596,177.599731 
	C112.197754,169.110123 112.103813,160.617783 112.273811,152.131302 
	C112.340599,148.797012 111.948715,147.024109 107.810112,147.011124 
	C103.381760,146.997253 103.554695,149.347565 103.574013,152.375031 
	C103.641991,163.028595 103.625519,173.683014 103.572716,184.336761 
	C103.563950,186.103653 104.147240,188.039597 102.286102,189.705994 
	C101.958595,177.102066 101.973724,164.357895 102.031639,151.613892 
	C102.040543,149.653152 101.651848,147.624817 102.963295,145.057404 
	C104.558983,141.062210 108.861534,143.034607 110.478516,139.882874 
	C110.734215,137.212982 110.195442,134.791260 111.741547,132.322861 
	C112.091568,130.553894 111.872185,128.925537 114.220589,128.361664 
	C114.220589,131.928116 114.220589,135.394104 114.220589,139.009964 
	C116.559250,136.870789 112.970955,133.121185 116.790359,131.799973 
	C117.597572,132.668137 118.139946,133.384521 118.110550,134.228683 
	C117.941223,139.091171 120.472794,140.307907 125.083961,139.233673 
	C126.385147,139.227524 127.292244,139.422455 126.968956,137.780334 
	C126.533607,135.569016 126.544266,133.298309 127.576904,130.541718 
	C129.062790,130.118744 130.294052,129.811050 130.960526,131.457611 
	C131.533875,134.619156 131.520966,137.465637 131.096252,140.700653 
	C132.176483,143.600845 134.327072,144.641205 136.901535,145.039185 
	C138.368027,145.265900 139.890549,145.410095 139.317978,147.765198 
	C137.463257,146.841003 135.590775,147.344101 133.817612,147.147354 
	C130.823288,146.815140 129.692032,147.968521 129.859680,151.037399 
	C130.083923,155.142471 129.969772,159.270187 129.885956,163.385834 
	C129.853806,164.964371 130.452087,166.709915 128.668213,168.213776 
	C126.719635,164.392609 127.805855,160.342560 127.505302,156.323929 
	C127.683266,160.133835 127.169479,163.940613 127.926254,168.140976 
z"/>
<path fill="#20041E" opacity="1.000000" stroke="none" 
	d="
M105.629852,115.351608 
	C101.657745,117.327896 103.699272,121.008194 103.895798,123.739807 
	C104.098770,126.561050 107.035881,125.451241 108.803925,125.469704 
	C118.754921,125.573662 128.709625,125.631844 138.658585,125.454498 
	C142.119461,125.392807 143.268707,126.531006 143.174255,130.014175 
	C142.954056,138.135742 143.042664,146.268127 143.144257,154.394409 
	C143.172562,156.659088 142.471024,158.310928 140.426575,159.204056 
	C138.752518,159.935349 139.064987,158.515701 139.066498,157.288971 
	C140.293472,156.769882 140.992569,156.188080 140.991837,154.989166 
	C140.986938,147.040695 142.437057,139.170761 142.090027,131.182526 
	C141.948441,127.923264 140.981155,126.883049 137.749359,126.931984 
	C127.285774,127.090424 116.818024,126.950470 106.352386,127.011284 
	C103.531578,127.027672 101.373993,125.982414 102.162186,123.058250 
	C102.884857,120.377174 98.819206,115.513977 105.629852,115.351608 
z"/>
<path fill="#D62F75" opacity="1.000000" stroke="none" 
	d="
M131.448975,141.027924 
	C128.970383,138.301254 129.825638,135.312759 130.720062,132.062225 
	C133.356964,131.868851 135.679169,131.957001 138.431122,132.088318 
	C138.928589,134.459946 138.996338,136.788422 139.099182,139.553314 
	C139.179901,140.194244 139.225525,140.398743 138.982544,140.727722 
	C136.420624,140.892120 134.147278,140.932053 131.448975,141.027924 
z"/>
<path fill="#D22E74" opacity="1.000000" stroke="none" 
	d="
M111.539810,131.986786 
	C112.029495,134.683624 112.076210,137.360687 112.041351,140.476837 
	C110.032547,142.663055 107.688293,141.783890 105.087868,141.872314 
	C104.117424,141.600754 103.675720,141.257782 103.223679,140.364624 
	C103.123428,137.934845 103.141098,135.916519 103.119850,133.467102 
	C103.100266,132.672897 103.244087,132.365173 103.739120,132.005219 
	C106.354347,131.925842 108.725586,131.946411 111.539810,131.986786 
z"/>
<path fill="#D22E73" opacity="1.000000" stroke="none" 
	d="
M126.217903,139.642502 
	C124.335060,141.200699 122.443069,140.673965 120.662773,140.882080 
	C117.567703,141.243851 116.413254,139.904282 116.756508,136.911499 
	C116.906967,135.599731 116.855934,134.264862 116.960617,132.491211 
	C119.049255,131.995758 121.073654,131.949585 123.527054,131.837280 
	C124.912178,131.572830 125.641907,131.987015 126.504913,133.007660 
	C127.036888,135.376083 127.271408,137.366379 126.217903,139.642502 
z"/>
<path fill="#20041E" opacity="1.000000" stroke="none" 
	d="
M134.913895,115.200333 
	C130.658508,115.636711 126.248085,115.725471 121.384109,115.681107 
	C125.409851,112.727859 130.087448,113.851631 134.913895,115.200333 
z"/>
<path fill="#20041E" opacity="1.000000" stroke="none" 
	d="
M126.304947,133.120819 
	C125.454773,132.708115 124.961914,132.386169 124.212555,131.917694 
	C124.899780,130.374405 124.254578,126.408432 127.937981,129.674042 
	C127.997475,130.002792 128.000000,130.000000 128.001175,129.998108 
	C127.004021,130.838104 128.025208,132.521667 126.304947,133.120819 
z"/>
<path fill="#321234" opacity="1.000000" stroke="none" 
	d="
M9.584475,42.105354 
	C10.081007,42.910477 11.759890,42.876133 10.746170,43.945869 
	C10.132234,44.593735 9.117167,45.188507 8.077642,44.401146 
	C7.197679,43.734634 6.731534,42.819065 7.287870,41.827286 
	C7.878819,40.773800 8.665001,41.431400 9.584475,42.105354 
z"/>
<path fill="#20041E" opacity="1.000000" stroke="none" 
	d="
M102.842751,140.138062 
	C103.417259,140.063232 103.655647,140.261276 103.924614,140.759796 
	C104.734253,142.270889 103.996124,143.340195 103.235870,144.725037 
	C102.994766,145.005768 102.999496,145.000534 103.001709,144.998444 
	C97.573341,143.918625 103.673225,141.794342 102.842751,140.138062 
z"/>
<path fill="#20041E" opacity="1.000000" stroke="none" 
	d="
M117.955429,115.238182 
	C116.633186,115.635986 115.196762,115.724136 113.345093,115.680077 
	C114.284302,113.099724 116.028130,113.739380 117.955429,115.238182 
z"/>
<path fill="#20041E" opacity="1.000000" stroke="none" 
	d="
M150.968353,115.255913 
	C149.957504,115.638863 148.845352,115.726677 147.331467,115.681458 
	C147.957977,113.448387 149.327606,113.635658 150.968353,115.255913 
z"/>
<path fill="#20041E" opacity="1.000000" stroke="none" 
	d="
M103.819305,131.695389 
	C103.890755,132.230667 103.726524,132.514450 103.285675,132.896332 
	C102.510933,132.719086 102.072060,132.264786 102.503975,131.639160 
	C102.651817,131.425018 103.258461,131.527618 103.819305,131.695389 
z"/>
<path fill="#20041E" opacity="1.000000" stroke="none" 
	d="
M156.007874,115.311096 
	C155.589478,115.640282 155.108948,115.721268 154.278854,115.678261 
	C154.341217,114.322540 154.898392,113.686935 156.007874,115.311096 
z"/>
<path fill="#20041E" opacity="1.000000" stroke="none" 
	d="
M138.930206,132.069489 
	C138.969681,132.093124 139.072525,132.049103 139.018097,132.068268 
	C138.860840,132.131470 138.993607,132.001831 138.930206,132.069489 
z"/>
<path fill="#20041E" opacity="1.000000" stroke="none" 
	d="
M138.896667,140.855835 
	C138.693954,140.852188 138.823959,140.375061 138.979111,140.182404 
	C139.236145,140.211060 139.352203,140.428024 139.423004,140.658890 
	C139.432465,140.689774 139.212891,140.790878 138.896667,140.855835 
z"/>
<path fill="#20041E" opacity="1.000000" stroke="none" 
	d="
M100.493271,190.954041 
	C100.665237,191.164246 100.570999,191.337418 100.178215,191.401627 
	C100.093338,191.204102 100.209137,191.078888 100.493271,190.954041 
z"/>
<path fill="#090107" opacity="1.000000" stroke="none" 
	d="
M53.661743,158.508820 
	C49.109444,154.655319 48.529392,150.009964 50.268471,145.122879 
	C51.953907,140.386551 55.864517,138.404144 60.734764,137.924866 
	C74.726860,136.547928 74.723701,136.515854 74.723686,150.317322 
	C74.723671,161.509781 74.723564,161.512039 63.614880,160.973984 
	C60.266819,160.811829 56.993721,160.315948 53.661743,158.508820 
z"/>
<path fill="#000000" opacity="1.000000" stroke="none" 
	d="
M103.367027,144.949265 
	C102.925301,143.807098 103.010727,142.642044 103.879326,141.293396 
	C106.379196,140.960938 108.730095,140.949600 111.520386,140.927094 
	C111.878006,142.968109 110.416298,143.192322 108.916611,142.993683 
	C106.802345,142.713638 105.265892,143.722672 103.367027,144.949265 
z"/>
<path fill="#010101" opacity="1.000000" stroke="none" 
	d="
M125.910995,133.462311 
	C126.457970,132.139572 126.968315,131.249069 127.740509,130.177399 
	C128.092499,133.132004 128.123001,136.271042 128.294205,139.402374 
	C128.404388,141.417740 127.376625,140.526260 126.229263,140.090942 
	C125.914688,137.942215 125.894524,135.918381 125.910995,133.462311 
z"/>
<path fill="#000000" opacity="1.000000" stroke="none" 
	d="
M128.127213,168.456985 
	C125.841248,164.112595 127.480537,159.540573 128.130066,155.023422 
	C128.130066,159.139145 128.130066,163.254852 128.204834,167.865631 
	C128.279617,168.360703 128.150604,168.394531 128.127213,168.456985 
z"/>
</svg>